# xmcd
#
# Track frame offsets:
#	150
#	14160
#	28062
#	40875
#	56615
#	71885
#	86845
#	103840
#	116967
#	129482
#	151297
#	166440
#	179970
#	191955
#
# Disc length: 2828 seconds
#
# Revision: 0
# Processed by: cddbd v1.4PL0 Copyright (c) Steve Scherf et al.
# Submitted via: EasyCDDAExtractor 4.6.9.1
#
DISCID=db0b0a0e
DTITLE=Nacional - A Música da Nossa Terra II
DYEAR=2001
DGENRE=Gauchesco
TTITLE0=O pau que dá cavaco - João Luiz Corrêa
TTITLE1=O cancioneiro das coxilhas - Os Serranos
TTITLE2=Xote do caminhoneiro - Oswaldir and Carlos Magrão
TTITLE3=Arrebentando os mondongo - Xirú Missioneiro
TTITLE4=É rodeio - Grupo Minuano
TTITLE5=Tô voltando pra ficar - Tchê Garotos
TTITLE6=Me belisque e me cutuque - Tchê Barbaridade
TTITLE7=Isto é rodeio - Os Tiranos
TTITLE8=Bem-me-quer - Os Monarcas
TTITLE9=Apostando na sorte - Chiquito e Bordoneio
TTITLE10=Cadela Baia - Mano Lima
TTITLE11=Iguaria Campeira - Grupo Rodeio
TTITLE12=Vanera do coração - Pala Velho
TTITLE13=Caçapava - Luiz Carlos Borges e Mauro Ferreira
EXTD=
EXTT0=
EXTT1=
EXTT2=
EXTT3=
EXTT4=
EXTT5=
EXTT6=
EXTT7=
EXTT8=
EXTT9=
EXTT10=
EXTT11=
EXTT12=
EXTT13=
PLAYORDER=
